<?xml version="1.0" standalone="no"?>
<!DOCTYPE svg PUBLIC "-//W3C//DTD SVG 20010904//EN"
 "http://www.w3.org/TR/2001/REC-SVG-20010904/DTD/svg10.dtd">
<svg version="1.0" xmlns="http://www.w3.org/2000/svg"
 width="315.000000pt" height="313.000000pt" viewBox="0 0 315.000000 313.000000"
 preserveAspectRatio="xMidYMid meet">

<g transform="translate(0.000000,313.000000) scale(0.100000,-0.100000)"
fill="#000000" stroke="none">
<path d="M1402 2943 c108 -2 288 -2 400 0 112 1 23 2 -197 2 -220 0 -311 -1
-203 -2z"/>
<path d="M1154 2924 c-18 -14 -18 -14 6 -3 31 14 36 19 24 19 -6 0 -19 -7 -30
-16z"/>
<path d="M1099 2883 l-24 -28 28 24 c25 23 32 31 24 31 -2 0 -14 -12 -28 -27z"/>
<path d="M1065 2839 c-4 -6 -5 -12 -2 -15 2 -3 7 2 10 11 7 17 1 20 -8 4z"/>
<path d="M1051 2794 c0 -11 3 -14 6 -6 3 7 2 16 -1 19 -3 4 -6 -2 -5 -13z"/>
<path d="M1071 2756 c2 -24 1 -42 -3 -39 -5 2 -8 -11 -9 -29 0 -18 -3 -28 -5
-21 -3 7 -12 9 -20 6 -7 -3 -12 -9 -9 -13 3 -5 0 -12 -6 -16 -8 -4 -9 -3 -5 4
20 33 -174 -11 -279 -62 l-70 -35 -25 22 c-14 12 -19 15 -12 7 20 -23 14 -32
-10 -16 -12 9 -29 16 -38 15 -10 0 -7 -4 8 -11 24 -12 26 -16 13 -36 -7 -11
-9 -11 -14 2 -4 9 -13 16 -21 16 -10 0 -13 6 -10 15 10 24 -22 18 -51 -10 -22
-23 -29 -43 -28 -82 1 -7 -4 -13 -9 -13 -7 0 -8 17 -5 42 5 41 16 55 63 85 17
10 17 11 -4 6 -41 -10 -72 -59 -72 -114 0 -27 -4 -49 -9 -49 -5 0 -36 -20 -68
-44 -46 -35 -61 -42 -72 -33 -12 9 -13 9 -8 0 6 -9 -1 -11 -26 -8 -49 6 -99
-22 -114 -65 -9 -28 -12 -30 -12 -11 -1 13 13 37 33 57 36 36 36 45 0 16 -44
-35 -58 -102 -29 -145 13 -20 12 -28 -10 -84 -48 -118 -58 -177 -52 -318 7
-196 54 -320 179 -474 48 -60 48 -60 49 -138 1 -142 11 -190 47 -226 l32 -32
325 -3 325 -3 0 -187 c0 -103 5 -203 10 -223 16 -56 51 -101 100 -129 l45 -25
420 0 420 0 43 25 c42 23 91 85 78 97 -3 4 -6 1 -6 -5 0 -6 -14 -27 -30 -46
-49 -56 -97 -66 -302 -66 l-178 0 0 275 0 275 253 2 c138 0 258 1 265 1 9 -1
12 24 12 93 l0 94 143 2 142 2 -145 6 c-93 4 -137 9 -122 14 16 6 22 16 22 37
0 24 4 28 33 32 17 2 -192 5 -466 5 l-498 2 -24 25 c-29 28 -31 47 -9 69 14
14 73 16 500 16 474 0 484 0 504 20 20 20 21 30 18 366 l-3 346 -24 19 c-22
18 -46 19 -557 19 l-533 0 -28 -24 -28 -24 0 -161 0 -161 -43 0 -44 0 4 191 3
191 33 29 32 29 238 0 c130 0 254 3 275 6 l37 7 -2 231 c-2 185 -3 209 -8 121
-3 -60 -7 -101 -9 -90 -2 11 -3 23 -2 28 0 4 -5 7 -13 7 -7 0 -19 7 -26 15 -6
8 -15 14 -18 13 -29 -3 -52 4 -47 15 4 6 1 5 -7 -4 -8 -10 -20 -14 -33 -9 -11
4 -26 5 -32 3 -7 -3 -13 0 -13 7 0 6 -4 8 -10 5 -5 -3 -10 1 -10 10 0 9 -4 14
-9 11 -5 -4 -12 0 -14 6 -3 8 -6 6 -6 -4 -1 -10 -5 -18 -11 -18 -5 0 -7 7 -4
15 4 10 0 15 -12 15 -18 1 -18 1 0 15 17 13 18 15 3 15 -9 0 -17 7 -17 15 0 8
-3 14 -7 14 -5 -1 -11 0 -15 1 -5 1 -14 3 -20 4 -7 0 -13 10 -13 20 0 11 -7
20 -15 22 -36 5 -46 10 -59 28 -14 19 -15 19 -22 0 -6 -15 -8 -12 -8 14 -1 25
-5 32 -21 32 -11 0 -20 5 -20 10 0 6 -9 10 -20 10 -16 0 -20 7 -20 30 0 17 -5
30 -11 30 -7 0 -10 -17 -8 -44z m182 -130 c4 -10 0 -12 -14 -9 -10 3 -16 9
-13 14 8 13 21 11 27 -5z m-211 -106 l0 -95 -99 -25 c-107 -27 -249 -91 -325
-145 -40 -29 -57 -35 -101 -35 -56 0 -121 -25 -149 -56 -46 -52 -48 -75 -48
-443 0 -202 -4 -352 -9 -356 -28 -17 -136 177 -165 296 -18 73 -21 239 -6 309
6 25 22 73 36 108 24 56 29 62 55 62 85 0 136 58 125 141 -7 48 -6 49 33 75
23 15 38 31 35 39 -3 7 -1 16 5 20 7 3 8 0 5 -9 -7 -18 7 -21 23 -5 7 7 22 4
49 -10 46 -25 84 -27 125 -5 35 18 63 75 55 110 -5 20 1 25 72 53 43 16 108
35 145 42 37 7 63 15 58 19 -6 3 10 5 35 5 l46 0 0 -95z m15 48 c-3 -8 -6 -5
-6 6 -1 11 2 17 5 13 3 -3 4 -12 1 -19z m-307 8 c0 -2 -7 -7 -16 -10 -8 -3
-12 -2 -9 4 6 10 25 14 25 6z m-70 -94 c0 -9 -4 -23 -8 -29 -5 -8 -8 1 -8 22
0 18 4 31 8 29 4 -3 8 -13 8 -22z m-313 -122 c-14 -11 -28 -20 -32 -20 -10 0
38 39 49 40 5 0 -3 -9 -17 -20z m679 -6 c-3 -9 -6 -42 -6 -75 l0 -59 -197 1
-198 0 83 42 c46 24 79 47 75 51 -4 5 -2 6 5 2 6 -4 40 2 75 13 134 44 173 50
163 25z m552 -370 c14 -10 22 -25 22 -45 0 -29 0 -29 -30 -14 -41 21 -55 19
-79 -11 -26 -33 -26 -75 -2 -153 35 -113 97 -167 178 -158 83 9 145 100 151
223 4 68 3 72 -24 93 -23 18 -35 21 -71 15 -40 -6 -43 -5 -43 16 0 50 63 64
131 29 57 -29 84 -90 74 -168 -16 -131 -88 -241 -172 -264 -24 -6 -43 -14 -43
-18 0 -16 52 -68 84 -83 46 -22 118 -20 165 3 46 24 56 36 69 83 10 35 8 39
-29 77 -34 34 -39 45 -39 86 0 60 32 95 87 95 99 0 145 -110 76 -182 -19 -20
-28 -40 -29 -70 -3 -54 -46 -115 -103 -145 -57 -30 -166 -32 -226 -4 -47 21
-115 93 -115 121 0 13 -12 25 -37 35 -92 38 -150 137 -160 270 -7 86 11 136
59 165 40 24 76 26 106 4z m-1014 -206 c8 -13 16 -56 18 -100 3 -75 3 -77 -25
-93 -26 -15 -30 -15 -52 -1 -23 15 -25 22 -25 104 0 55 4 92 12 100 19 19 56
14 72 -10z m334 10 c8 -8 12 -46 12 -105 0 -84 -2 -93 -21 -104 -16 -8 -28 -8
-45 0 -23 10 -24 15 -24 104 0 98 7 117 45 117 12 0 26 -5 33 -12z m-821 -50
c-3 -8 -6 -5 -6 6 -1 11 2 17 5 13 3 -3 4 -12 1 -19z m730 -120 c-2 -18 -4 -4
-4 32 0 36 2 50 4 33 2 -18 2 -48 0 -65z m-490 20 c-2 -13 -4 -3 -4 22 0 25 2
35 4 23 2 -13 2 -33 0 -45z m150 56 c-7 -7 -107 -7 -115 0 -3 3 23 6 58 6 35
0 61 -3 57 -6z m316 -1 c-7 -2 -19 -2 -25 0 -7 3 -2 5 12 5 14 0 19 -2 13 -5z
m355 -5 c7 -7 12 -39 12 -74 l0 -61 -27 5 c-26 5 -53 24 -53 36 0 3 16 6 35 6
33 0 35 2 35 34 0 18 -7 39 -15 46 -12 10 -15 10 -15 -1 0 -10 -2 -11 -8 -2
-4 6 -34 14 -67 16 -58 3 -58 3 16 5 47 1 79 -2 87 -10z m-201 -30 c-3 -7 -5
-2 -5 12 0 14 2 19 5 13 2 -7 2 -19 0 -25z m-470 -40 c-2 -13 -4 -3 -4 22 0
25 2 35 4 23 2 -13 2 -33 0 -45z m651 31 c12 0 13 -2 3 -6 -11 -5 -11 -7 0
-15 10 -6 7 -7 -8 -3 -14 4 -23 2 -23 -4 0 -6 -4 -11 -10 -11 -5 0 -10 16 -10
36 0 32 1 34 16 20 8 -9 23 -16 32 -17z m-801 -86 c-3 -10 -5 -4 -5 12 0 17 2
24 5 18 2 -7 2 -21 0 -30z m840 -288 l-2 -235 -25 -25 -25 -25 -346 0 c-249
-1 -353 2 -372 11 -50 23 -57 56 -57 293 l0 216 414 0 415 0 -2 -235z m628
-164 c10 -21 29 -34 65 -46 49 -16 77 -45 65 -65 -4 -6 -116 -10 -291 -10
-231 0 -284 2 -284 13 0 21 31 44 79 58 34 10 47 20 57 46 l14 33 140 0 139 0
16 -29z"/>
<path d="M2005 1711 c-7 -24 3 -49 27 -62 35 -19 59 20 42 65 -9 23 -61 21
-69 -3z"/>
<path d="M487 1383 c-2 -4 -2 -25 0 -45 5 -34 8 -38 35 -38 28 0 29 1 26 43
-3 37 -6 42 -30 45 -14 2 -28 0 -31 -5z"/>
<path d="M964 1312 l-42 -47 -86 -4 c-47 -1 -86 -6 -86 -10 0 -15 60 -97 95
-131 l36 -35 24 30 c77 93 136 175 150 208 l15 37 -32 0 c-26 -1 -41 -10 -74
-48z"/>
<path d="M626 1215 c-3 -9 -6 -41 -6 -71 l0 -54 35 0 36 0 -3 68 c-3 64 -4 67
-29 70 -17 2 -29 -3 -33 -13z"/>
<path d="M488 1154 c-1 -36 -2 -67 -1 -68 2 -1 16 -1 33 2 30 4 30 5 30 68 l0
64 -29 0 c-29 0 -29 -1 -33 -66z"/>
<path d="M1043 2725 c0 -22 2 -30 4 -17 2 12 2 30 0 40 -3 9 -5 -1 -4 -23z"/>
<path d="M1623 2675 c0 -27 2 -38 4 -22 2 15 2 37 0 50 -2 12 -4 0 -4 -28z"/>
<path d="M588 2593 c7 -3 16 -2 19 1 4 3 -2 6 -13 5 -11 0 -14 -3 -6 -6z"/>
<path d="M233 2363 c9 -2 23 -2 30 0 6 3 -1 5 -18 5 -16 0 -22 -2 -12 -5z"/>
<path d="M2355 1645 c0 -203 1 -285 2 -182 2 104 2 270 0 370 -1 100 -2 16 -2
-188z"/>
<path d="M3006 1101 c23 -4 53 -15 68 -24 14 -10 26 -15 26 -12 0 14 -69 45
-100 44 l-35 -2 41 -6z"/>
<path d="M2629 1053 c-13 -16 -12 -17 4 -4 16 13 21 21 13 21 -2 0 -10 -8 -17
-17z"/>
<path d="M3113 990 c0 -25 2 -35 4 -22 2 12 2 32 0 45 -2 12 -4 2 -4 -23z"/>
<path d="M2882 990 c0 -14 2 -19 5 -12 2 6 2 18 0 25 -3 6 -5 1 -5 -13z"/>
<path d="M3076 901 l-30 -36 34 32 c19 18 32 34 29 36 -2 2 -17 -12 -33 -32z"/>
<path d="M2218 873 c7 -3 16 -2 19 1 4 3 -2 6 -13 5 -11 0 -14 -3 -6 -6z"/>
<path d="M2993 863 c9 -2 25 -2 35 0 9 3 1 5 -18 5 -19 0 -27 -2 -17 -5z"/>
<path d="M1650 545 l0 -176 151 3 c84 1 143 5 134 8 -16 6 -17 7 -3 13 10 3
19 0 22 -9 4 -11 15 -13 43 -8 21 4 40 11 41 15 2 5 12 9 21 9 10 0 27 10 39
23 18 19 19 26 9 37 -9 10 -9 12 1 6 6 -4 12 -2 12 4 0 6 5 8 12 4 8 -5 9 -2
5 9 -4 10 -1 17 5 17 6 0 8 3 5 6 -4 4 -13 1 -22 -6 -12 -10 -15 -10 -15 4 0
11 -5 15 -12 10 -8 -4 -10 -3 -5 2 5 5 14 9 20 9 7 0 12 7 12 15 0 9 -6 13
-15 11 -76 -21 -242 29 -368 112 -37 24 -73 47 -79 51 -10 6 -13 -31 -13 -169z
m61 118 c13 -16 12 -17 -3 -4 -17 13 -22 21 -14 21 2 0 10 -8 17 -17z m153
-131 c3 -5 -1 -9 -9 -9 -8 0 -12 4 -9 9 3 4 7 8 9 8 2 0 6 -4 9 -8z m111 -11
c3 -5 2 -12 -3 -15 -5 -3 -9 1 -9 9 0 17 3 19 12 6z m70 -1 c-4 -6 -10 -8 -15
-5 -4 3 -10 0 -12 -7 -3 -8 -6 -7 -10 3 -4 10 2 15 19 17 14 1 22 -2 18 -8z
m-135 -53 c12 -4 11 -6 -2 -6 -11 -1 -18 -9 -19 -23 -1 -22 -1 -22 -8 2 -8 27
-2 58 8 42 3 -5 13 -12 21 -15z m-55 3 c-3 -5 -14 -10 -23 -9 -14 0 -13 2 3 9
27 11 27 11 20 0z m95 -5 c0 -8 5 -15 10 -15 6 0 10 -7 10 -16 0 -13 -2 -13
-13 -2 -18 18 -28 48 -17 48 6 0 10 -7 10 -15z m-27 -30 c-3 -9 -8 -14 -10
-11 -3 3 -2 9 2 15 9 16 15 13 8 -4z"/>
<path d="M2308 673 c7 -3 16 -2 19 1 4 3 -2 6 -13 5 -11 0 -14 -3 -6 -6z"/>
<path d="M2653 663 c9 -2 23 -2 30 0 6 3 -1 5 -18 5 -16 0 -22 -2 -12 -5z"/>
<path d="M2218 653 c7 -3 16 -2 19 1 4 3 -2 6 -13 5 -11 0 -14 -3 -6 -6z"/>
<path d="M2248 613 c7 -3 16 -2 19 1 4 3 -2 6 -13 5 -11 0 -14 -3 -6 -6z"/>
<path d="M2165 599 c-4 -6 -5 -12 -2 -15 2 -3 7 2 10 11 7 17 1 20 -8 4z"/>
<path d="M2162 510 c0 -14 2 -19 5 -12 2 6 2 18 0 25 -3 6 -5 1 -5 -13z"/>
</g>
</svg>
